<svg xmlns="http://www.w3.org/2000/svg" version="1.1" xmlns:xlink="http://www.w3.org/1999/xlink" xmlns:svgjs="http://svgjs.dev/svgjs" width="1000" height="166" viewBox="0 0 1000 166"><g transform="matrix(1,0,0,1,-0.6060596261932574,0.25798608881497387)"><svg viewBox="0 0 396 66" data-background-color="#ffffff" preserveAspectRatio="xMidYMid meet" height="166" width="1000" xmlns="http://www.w3.org/2000/svg" xmlns:xlink="http://www.w3.org/1999/xlink"><g id="tight-bounds" transform="matrix(1,0,0,1,0.239999620390563,-0.10257254893826939)"><svg viewBox="0 0 395.52 66.20514533123823" height="66.20514533123823" width="395.52"><g><svg viewBox="0 0 517.3559132009734 86.59896698383373" height="66.20514533123823" width="395.52"><g><rect width="5.650929242211326" height="62.97537034642032" x="410.3130084874642" y="11.811798318706707" fill="#0074d9" opacity="1" stroke-width="0" stroke="transparent" fill-opacity="1" class="rect-o-0" data-fill-palette-color="primary" rx="1%" id="o-0" data-palette-color="#0074d9"></rect></g><g transform="matrix(1,0,0,1,0,11.968453468822176)"><svg viewBox="0 0 395.52 62.66206004618938" height="62.66206004618938" width="395.52"><g><svg viewBox="0 0 395.52 62.66206004618938" height="62.66206004618938" width="395.52"><g><svg viewBox="0 0 395.52 62.66206004618938" height="62.66206004618938" width="395.52"><g transform="matrix(1,0,0,1,0,0)"><svg width="395.52" viewBox="0.4000000059604645 -34.29999923706055 214.10000610351562 34.29999923706055" height="62.66206004618938" data-palette-color="#0074d9"><g class="undefined-text-0" data-fill-palette-color="primary" id="text-0"><path d="M10.05 0L0.4-34.3 6.25-34.3 12.55-11.05Q12.9-9.8 13.7-5.95L13.7-5.95 13.95-5.95 14.9-11.05 20.1-34.3 27.5-34.3 32.85-11.05Q33.2-9.6 33.85-5.95L33.85-5.95 34.1-5.95Q34.9-9.75 35.25-11.05L35.25-11.05 41.45-34.3 46.8-34.3 37.15 0 30.2 0 24.7-23.4Q24.25-25.35 23.65-28.75L23.65-28.75 23.4-28.75Q22.85-25.05 22.45-23.4L22.45-23.4 17 0 10.05 0ZM50.95 0L50.95-34.3 77.55-34.3 77.55-29.55 56.5-29.55 56.5-19.9 75.35-19.9 75.35-15.15 56.5-15.15 56.5-4.75 77.85-4.75 77.85 0 50.95 0ZM84.3 0L84.3-34.3 101.8-34.3Q104.6-34.3 106.77-33.25 108.95-32.2 110.17-30.28 111.4-28.35 111.4-25.85L111.4-25.85Q111.4-23 109.82-20.9 108.25-18.8 105.7-18L105.7-18 105.7-17.8Q108.7-17.15 110.52-14.93 112.35-12.7 112.35-9.25L112.35-9.25Q112.35-4.65 109.45-2.33 106.55 0 101.8 0L101.8 0 84.3 0ZM89.85-19.95L100.55-19.95Q102.9-19.95 104.32-21.28 105.75-22.6 105.75-24.75L105.75-24.75Q105.75-27.15 104.45-28.35 103.15-29.55 100.9-29.55L100.9-29.55 89.85-29.55 89.85-19.95ZM89.85-4.75L101.4-4.75Q103.9-4.75 105.3-6 106.7-7.25 106.7-9.9L106.7-9.9Q106.7-12.5 105.25-13.85 103.8-15.2 101-15.2L101-15.2 89.85-15.2 89.85-4.75Z" fill="#0074d9" data-fill-palette-color="primary"></path><path d="M116.1 0L116.1-34.3 129.3-34.3Q137.4-34.3 141.8-30.05 146.2-25.8 146.2-17.15L146.2-17.15Q146.2-8.5 141.8-4.25 137.4 0 129.3 0L129.3 0 116.1 0ZM121.65-4.75L129.3-4.75Q134.75-4.75 137.63-7.68 140.5-10.6 140.5-16.85L140.5-16.85 140.5-17.4Q140.5-23.7 137.63-26.63 134.75-29.55 129.3-29.55L129.3-29.55 121.65-29.55 121.65-4.75ZM152.2 0L152.2-34.3 178.8-34.3 178.8-29.55 157.75-29.55 157.75-19.9 176.6-19.9 176.6-15.15 157.75-15.15 157.75-4.75 179.1-4.75 179.1 0 152.2 0ZM195.05 0L182.4-34.3 188.4-34.3 196.65-11.25 197.2-9.65 198.5-5.85 198.75-5.85 199.85-9Q200.05-9.7 200.25-10.28 200.45-10.85 200.6-11.3L200.6-11.3 208.8-34.3 214.5-34.3 201.9 0 195.05 0Z" fill="#8300d9" data-fill-palette-color="secondary"></path></g></svg></g></svg></g></svg></g></svg></g><g transform="matrix(1,0,0,1,430.75694621713967,0)"><svg viewBox="0 0 86.59896698383373 86.59896698383373" height="86.59896698383373" width="86.59896698383373"><g><svg xmlns="http://www.w3.org/2000/svg" xmlns:xlink="http://www.w3.org/1999/xlink" version="1.1" x="0" y="0" viewBox="9.874999046325684 8.871000289916992 82.25 82.25" enable-background="new 0 0 100 100" xml:space="preserve" height="86.59896698383373" width="86.59896698383373" class="icon-icon-0" data-fill-palette-color="accent" id="icon-0"><g fill="#0074d9" data-fill-palette-color="accent"><g fill="#0074d9" data-fill-palette-color="accent"><g fill="#0074d9" data-fill-palette-color="accent"><path d="M92.125 19.833v60.322c0 6.059-4.907 10.966-10.967 10.966H20.842c-6.059 0-10.967-4.907-10.967-10.966V19.833c0-6.06 4.908-10.962 10.967-10.962h60.316C87.218 8.872 92.125 13.773 92.125 19.833zM86.641 80.155V19.833c0-3.028-2.461-5.483-5.482-5.483H20.842c-3.028 0-5.483 2.455-5.483 5.483v60.322c0 3.016 2.455 5.483 5.483 5.483h60.316C84.18 85.638 86.641 83.171 86.641 80.155z" fill="#0074d9" data-fill-palette-color="accent"></path><path d="M81.158 71.924v5.483c0 1.514-1.229 2.748-2.742 2.748h-5.483c-1.514 0-2.741-1.234-2.741-2.748v-5.483c0-1.514 1.228-2.736 2.741-2.736h5.483C79.93 69.188 81.158 70.411 81.158 71.924z" fill="#0074d9" data-fill-palette-color="accent"></path><path d="M81.158 55.474v5.483c0 1.519-1.229 2.748-2.742 2.748h-5.483c-1.514 0-2.741-1.229-2.741-2.748v-5.483c0-1.514 1.228-2.736 2.741-2.736h5.483C79.93 52.738 81.158 53.96 81.158 55.474z" fill="#0074d9" data-fill-palette-color="accent"></path><path d="M81.158 39.03v5.482c0 1.514-1.229 2.742-2.742 2.742h-5.483c-1.514 0-2.741-1.229-2.741-2.742V39.03c0-1.514 1.228-2.747 2.741-2.747h5.483C79.93 36.283 81.158 37.516 81.158 39.03z" fill="#0074d9" data-fill-palette-color="accent"></path><path d="M81.158 22.581v5.484c0 1.512-1.229 2.735-2.742 2.735h-5.483c-1.514 0-2.741-1.223-2.741-2.735v-5.484c0-1.514 1.228-2.747 2.741-2.747h5.483C79.93 19.833 81.158 21.066 81.158 22.581z" fill="#0074d9" data-fill-palette-color="accent"></path><path d="M64.708 71.924v5.483c0 1.514-1.229 2.748-2.743 2.748h-5.481c-1.514 0-2.741-1.234-2.741-2.748v-5.483c0-1.514 1.228-2.736 2.741-2.736h5.481C63.479 69.188 64.708 70.411 64.708 71.924z" fill="#0074d9" data-fill-palette-color="accent"></path><path d="M64.708 55.474v5.483c0 1.519-1.229 2.748-2.743 2.748h-5.481c-1.514 0-2.741-1.229-2.741-2.748v-5.483c0-1.514 1.228-2.736 2.741-2.736h5.481C63.479 52.738 64.708 53.96 64.708 55.474z" fill="#0074d9" data-fill-palette-color="accent"></path><path d="M64.708 39.03v5.482c0 1.514-1.229 2.742-2.743 2.742h-5.481c-1.514 0-2.741-1.229-2.741-2.742V39.03c0-1.514 1.228-2.747 2.741-2.747h5.481C63.479 36.283 64.708 37.516 64.708 39.03z" fill="#0074d9" data-fill-palette-color="accent"></path><path d="M64.708 22.581v5.484c0 1.512-1.229 2.735-2.743 2.735h-5.481c-1.514 0-2.741-1.223-2.741-2.735v-5.484c0-1.514 1.228-2.747 2.741-2.747h5.481C63.479 19.833 64.708 21.066 64.708 22.581z" fill="#0074d9" data-fill-palette-color="accent"></path><path d="M48.258 71.924v5.483c0 1.514-1.228 2.748-2.742 2.748h-5.484c-1.513 0-2.74-1.234-2.74-2.748v-5.483c0-1.514 1.228-2.736 2.74-2.736h5.484C47.03 69.188 48.258 70.411 48.258 71.924z" fill="#0074d9" data-fill-palette-color="accent"></path><path d="M48.258 55.474v5.483c0 1.519-1.228 2.748-2.742 2.748h-5.484c-1.513 0-2.74-1.229-2.74-2.748v-5.483c0-1.514 1.228-2.736 2.74-2.736h5.484C47.03 52.738 48.258 53.96 48.258 55.474z" fill="#0074d9" data-fill-palette-color="accent"></path><path d="M48.258 39.03v5.482c0 1.514-1.228 2.742-2.742 2.742h-5.484c-1.513 0-2.74-1.229-2.74-2.742V39.03c0-1.514 1.228-2.747 2.74-2.747h5.484C47.03 36.283 48.258 37.516 48.258 39.03z" fill="#0074d9" data-fill-palette-color="accent"></path><path d="M48.258 22.581v5.484c0 1.512-1.228 2.735-2.742 2.735h-5.484c-1.513 0-2.74-1.223-2.74-2.735v-5.484c0-1.514 1.228-2.747 2.74-2.747h5.484C47.03 19.833 48.258 21.066 48.258 22.581z" fill="#0074d9" data-fill-palette-color="accent"></path><path d="M31.81 71.924v5.483c0 1.514-1.23 2.748-2.744 2.748h-5.482c-1.513 0-2.741-1.234-2.741-2.748v-5.483c0-1.514 1.229-2.736 2.741-2.736h5.482C30.579 69.188 31.81 70.411 31.81 71.924z" fill="#0074d9" data-fill-palette-color="accent"></path><path d="M31.81 55.474v5.483c0 1.519-1.23 2.748-2.744 2.748h-5.482c-1.513 0-2.741-1.229-2.741-2.748v-5.483c0-1.514 1.229-2.736 2.741-2.736h5.482C30.579 52.738 31.81 53.96 31.81 55.474z" fill="#0074d9" data-fill-palette-color="accent"></path><path d="M31.81 39.03v5.482c0 1.514-1.23 2.742-2.744 2.742h-5.482c-1.513 0-2.741-1.229-2.741-2.742V39.03c0-1.514 1.229-2.747 2.741-2.747h5.482C30.579 36.283 31.81 37.516 31.81 39.03z" fill="#0074d9" data-fill-palette-color="accent"></path><path d="M31.81 22.581v5.484c0 1.512-1.23 2.735-2.744 2.735h-5.482c-1.513 0-2.741-1.223-2.741-2.735v-5.484c0-1.514 1.229-2.747 2.741-2.747h5.482C30.579 19.833 31.81 21.066 31.81 22.581z" fill="#0074d9" data-fill-palette-color="accent"></path></g></g></g></svg></g></svg></g></svg></g><defs></defs></svg><rect width="395.52" height="66.20514533123823" fill="none" stroke="none" visibility="hidden"></rect></g></svg></g></svg>