<?xml version="1.0" encoding="utf-8"?>
<!-- Generator: Adobe Illustrator 25.0.1, SVG Export Plug-In . SVG Version: 6.00 Build 0)  -->
<svg version="1.0" id="katman_1" xmlns="http://www.w3.org/2000/svg" xmlns:xlink="http://www.w3.org/1999/xlink" x="0px" y="0px"
	 viewBox="0 0 644 408" style="enable-background:new 0 0 644 408;" xml:space="preserve">
<style type="text/css">
	.st0{fill:#00C9DB;}
	.st1{fill:#0D55FF;}
	.st2{fill:#7000F2;}
	.st3{fill:#5F6368;}
</style>
<g>
	<g>
		<path class="st0" d="M162.8,224.3h-36.8c-0.4,0-1.2,0-1.7,0.4l-27.7,21.9c-0.4,0.4-0.4,0.8,0,1.2c0,0.4,0.4,0.4,0.8,0.4h65.8
			c6.6,0,12.4-5.8,12-12.8C174.8,228.9,169,224.3,162.8,224.3"/>
		<path class="st1" d="M132.7,201.2c-0.4-3.3-2.1-6.6-4.5-8.7l-42.6-33.9c-5.4-4.1-12.8-3.3-17,2.1c-4.1,5.4-3.3,12.8,2.1,17
			l31,24.8l-31,24.8c-5.4,4.1-6.2,11.6-2.1,17s11.6,6.2,17,2.1l42.6-34.7c2.9-2.5,4.5-5.8,4.5-9.5V201.2"/>
		<path class="st2" d="M175.2,236.3c0,6.6-5.4,12-12,12c-6.6,0-12-5.4-12-12c0-6.6,5.4-12,12-12
			C169.8,224.3,175.2,229.7,175.2,236.3"/>
	</g>
	<path class="st3" d="M558.1,235.9H549l-19.9-49.2h9.9l14.5,38.1l14.5-38.1h9.9L558.1,235.9L558.1,235.9z M488.7,205.7h28.1
		c-0.4-6.6-5.8-12-14.1-12C495.7,193.7,490.3,198.2,488.7,205.7L488.7,205.7z M503.6,237.5c-14.5,0-24.8-11.2-24.8-26.1
		c0-14.9,10.3-26.1,24.4-26.1c14.5,0,24,9.9,24,26.9v0.8h-38.5c0.4,9.5,7.4,16.1,15.7,16.1c5.8,0,10.8-2.9,13.6-8.7l8.3,4.1
		C521.8,232.6,513.5,237.5,503.6,237.5L503.6,237.5z M445.7,237.5c-12.8,0-23.6-11.6-23.6-26.1s10.8-26.1,23.6-26.1
		c7,0,13.6,3.3,17,8.3h0.4l-0.4-6.6v-22.7h9.1v71.6H463v-6.6h-0.4C458.9,234.2,452.7,237.5,445.7,237.5L445.7,237.5z M446.9,229.3
		c9.1,0,15.7-7,15.7-17.8c0-10.3-6.6-17.8-15.7-17.8c-8.7,0-15.7,7.4-15.7,17.8C431.2,221.8,438.2,229.3,446.9,229.3z M418.8,229.7
		c0,3.7-2.9,6.6-7,6.6c-3.7,0-7-3.3-7-6.6c0-3.7,3.3-6.6,7-6.6C415.9,223.1,418.8,226,418.8,229.7z M375.3,229.3
		c8.7,0,15.7-7.4,15.7-17.8c0-10.3-7-17.8-15.7-17.8c-9.1,0-15.7,7.4-15.7,17.8C359.6,221.8,366.2,229.3,375.3,229.3z M377,237.5
		c-7,0-13.6-3.3-17-8.3h-0.4v6.6h-8.7v-71.6h9.1v22.7l-0.4,6.6h0.4c3.3-5,9.5-8.3,17-8.3c12.8,0,23.6,11.6,23.6,26.1
		C400.2,226,389.8,237.5,377,237.5L377,237.5z M305,205.7h28.1c-0.4-6.6-5.8-12-14.1-12C312.1,193.7,306.7,198.2,305,205.7
		L305,205.7z M319.9,237.5c-14.5,0-24.8-11.2-24.8-26.1c0-14.9,10.3-26.1,24.4-26.1c14.5,0,24,9.9,24,26.9v0.8H305
		c0.4,9.5,7.4,16.1,15.7,16.1c5.8,0,10.3-2.9,13.6-8.7l8.3,4.1C338.1,232.6,329.8,237.5,319.9,237.5L319.9,237.5z M293.9,187.1
		l-15.7,49.2h-9.5l-12.4-37.6l-12,37.6h-9.5l-16.1-49.2h9.5l10.8,37.2l12-37.2h9.5l12,37.2l10.8-37.2H293.9L293.9,187.1z"/>
</g>
</svg>
