<svg xmlns="http://www.w3.org/2000/svg" version="1.1" xmlns:xlink="http://www.w3.org/1999/xlink" xmlns:svgjs="http://svgjs.dev/svgjs" width="1000" height="285" viewBox="0 0 1000 285"><g transform="matrix(1,0,0,1,-0.6060601863952684,0.6118211884096354)"><svg viewBox="0 0 396 113" data-background-color="#ffffff" preserveAspectRatio="xMidYMid meet" height="285" width="1000" xmlns="http://www.w3.org/2000/svg" xmlns:xlink="http://www.w3.org/1999/xlink"><g id="tight-bounds" transform="matrix(1,0,0,1,0.23999983381253287,-0.24258173435188723)"><svg viewBox="0 0 395.52 113.48516313884086" height="113.48516313884086" width="395.52"><g><svg viewBox="0 0 576.0240024563337 165.27654199697892" height="113.48516313884086" width="395.52"><g transform="matrix(1,0,0,1,0,22.842127005371182)"><svg viewBox="0 0 395.52 119.59228798623656" height="119.59228798623656" width="395.52"><g><svg viewBox="0 0 395.52 119.59228798623656" height="119.59228798623656" width="395.52"><g><svg viewBox="0 0 395.52 64.50236559139785" height="64.50236559139785" width="395.52"><g transform="matrix(1,0,0,1,0,0)"><svg width="395.52" viewBox="0 -29.5 278.9800109863281 45.5" height="64.50236559139785" data-palette-color="#79b9dd"><path d="M4.5 0L0 0 0-29.5 4.5-29.5 4.5 0ZM7.5 0L6 0 6-29.5 7.5-29.5 7.5 0ZM10.5 0L9 0 9-29.5 10.5-29.5 10.5 0ZM21 0L16.5 0 16.5-29.5 21-29.5 21 0ZM24 0L22.5 0 22.5-29.5 24-29.5 24 0ZM9.05 15.95L9.05 4.35 10.55 4.35 10.55 4.5Q10.45 4.6 10.4 4.75L10.4 4.75Q10.4 4.85 10.4 5.2L10.4 5.2 10.4 9.3 14.9 9.3 14.9 4.35 16.45 4.35 16.45 4.5Q16.35 4.6 16.3 4.75L16.3 4.75Q16.3 4.85 16.3 5.2L16.3 5.2 16.3 15.95 14.9 15.95 14.9 10.45 10.4 10.45 10.4 15.95 9.05 15.95ZM30 0L25.5 0 25.5-29.5 30-29.5 30 0ZM33 0L31.5 0 31.5-29.5 33-29.5 33 0ZM39 0L34.5 0 34.5-29.5 39-29.5 39 0ZM46.5 0L45 0 45-29.5 46.5-29.5 46.5 0ZM49.5 0L48 0 48-29.5 49.5-29.5 49.5 0ZM34.7 15.95L34.7 4.35 41.8 4.35 41.8 5.5 35.9 5.5 35.9 9.3 40.8 9.3 40.8 10.5 35.9 10.5 35.9 14.8 41.75 14.8 41.75 15.95 34.7 15.95ZM55.5 0L51 0 51-29.5 55.5-29.5 55.5 0ZM58.5 0L57 0 57-29.5 58.5-29.5 58.5 0ZM61.5 0L60 0 60-29.5 61.5-29.5 61.5 0ZM69 0L67.5 0 67.5-29.5 69-29.5 69 0ZM75 0L70.5 0 70.5-29.5 75-29.5 75 0ZM66.75 15.95L65.59 12.55 61.85 12.55 60.7 15.95 59.4 15.95 63.65 4.15 63.8 4.15 68.09 15.95 66.75 15.95ZM62.2 11.55L65.25 11.55 63.75 7.15 62.2 11.55ZM77.99 0L76.49 0 76.49-29.5 77.99-29.5 77.99 0ZM83.99 0L79.49 0 79.49-29.5 83.99-29.5 83.99 0ZM86.99 0L85.49 0 85.49-29.5 86.99-29.5 86.99 0ZM89.99 0L88.49 0 88.49-29.5 89.99-29.5 89.99 0ZM100.49 0L95.99 0 95.99-29.5 100.49-29.5 100.49 0ZM85.84 15.95L85.84 4.35 87.34 4.35 87.34 4.5Q87.24 4.6 87.19 4.75L87.19 4.75Q87.19 4.85 87.19 5.2L87.19 5.2 87.19 14.85 92.74 14.85 92.74 15.95 85.84 15.95ZM103.49 0L101.99 0 101.99-29.5 103.49-29.5 103.49 0ZM106.49 0L104.99 0 104.99-29.5 106.49-29.5 106.49 0ZM112.49 0L107.99 0 107.99-29.5 112.49-29.5 112.49 0ZM118.49 0L113.99 0 113.99-29.5 118.49-29.5 118.49 0ZM125.99 0L124.49 0 124.49-29.5 125.99-29.5 125.99 0ZM113.94 15.95L113.94 5.5 110.69 5.5 110.69 4.35 118.69 4.35 118.69 5.5 115.29 5.5 115.29 15.95 113.94 15.95ZM131.99 0L127.49 0 127.49-29.5 131.99-29.5 131.99 0ZM134.99 0L133.49 0 133.49-29.5 134.99-29.5 134.99 0ZM137.99 0L136.49 0 136.49-29.5 137.99-29.5 137.99 0ZM148.49 0L143.99 0 143.99-29.5 148.49-29.5 148.49 0ZM151.49 0L149.99 0 149.99-29.5 151.49-29.5 151.49 0ZM136.54 15.95L136.54 4.35 138.04 4.35 138.04 4.5Q137.94 4.6 137.89 4.75L137.89 4.75Q137.89 4.85 137.89 5.2L137.89 5.2 137.89 9.3 142.39 9.3 142.39 4.35 143.94 4.35 143.94 4.5Q143.84 4.6 143.79 4.75L143.79 4.75Q143.79 4.85 143.79 5.2L143.79 5.2 143.79 15.95 142.39 15.95 142.39 10.45 137.89 10.45 137.89 15.95 136.54 15.95ZM154.49 0L152.99 0 152.99-29.5 154.49-29.5 154.49 0ZM164.99 0L160.49 0 160.49-29.5 164.99-29.5 164.99 0ZM167.99 0L166.49 0 166.49-29.5 167.99-29.5 167.99 0ZM173.99 0L169.49 0 169.49-29.5 173.99-29.5 173.99 0ZM176.99 0L175.49 0 175.49-29.5 176.99-29.5 176.99 0ZM182.98 0L178.48 0 178.48-29.5 182.98-29.5 182.98 0ZM185.98 0L184.48 0 184.48-29.5 185.98-29.5 185.98 0ZM188.98 0L187.48 0 187.48-29.5 188.98-29.5 188.98 0ZM199.48 0L194.98 0 194.98-29.5 199.48-29.5 199.48 0ZM202.48 0L200.98 0 200.98-29.5 202.48-29.5 202.48 0ZM187.53 15.95L187.53 4.35 189.03 4.35 189.03 4.5Q188.93 4.6 188.88 4.75L188.88 4.75Q188.88 4.85 188.88 5.2L188.88 5.2 188.88 9.3 193.38 9.3 193.38 4.35 194.93 4.35 194.93 4.5Q194.83 4.6 194.78 4.75L194.78 4.75Q194.78 4.85 194.78 5.2L194.78 5.2 194.78 15.95 193.38 15.95 193.38 10.45 188.88 10.45 188.88 15.95 187.53 15.95ZM205.48 0L203.98 0 203.98-29.5 205.48-29.5 205.48 0ZM211.48 0L206.98 0 206.98-29.5 211.48-29.5 211.48 0ZM214.48 0L212.98 0 212.98-29.5 214.48-29.5 214.48 0ZM224.98 0L220.48 0 220.48-29.5 224.98-29.5 224.98 0ZM227.98 0L226.48 0 226.48-29.5 227.98-29.5 227.98 0ZM213.58 15.95L213.58 14.85 215.88 14.85 215.88 5.45 213.73 5.45 213.73 4.35 219.48 4.35 219.48 5.45 217.18 5.45 217.18 14.85 219.58 14.85 219.58 15.95 213.58 15.95ZM230.98 0L229.48 0 229.48-29.5 230.98-29.5 230.98 0ZM241.48 0L236.98 0 236.98-29.5 241.48-29.5 241.48 0ZM244.48 0L242.98 0 242.98-29.5 244.48-29.5 244.48 0ZM247.48 0L245.98 0 245.98-29.5 247.48-29.5 247.48 0ZM253.48 0L248.98 0 248.98-29.5 253.48-29.5 253.48 0ZM241.98 16L238.03 4.35 239.38 4.35 242.38 13.25 245.18 4.35 246.48 4.35 242.58 16 241.98 16ZM259.48 0L254.98 0 254.98-29.5 259.48-29.5 259.48 0ZM262.48 0L260.98 0 260.98-29.5 262.48-29.5 262.48 0ZM268.48 0L263.98 0 263.98-29.5 268.48-29.5 268.48 0ZM275.98 0L274.48 0 274.48-29.5 275.98-29.5 275.98 0ZM278.98 0L277.48 0 277.48-29.5 278.98-29.5 278.98 0ZM264.18 15.95L264.18 4.35 271.28 4.35 271.28 5.5 265.38 5.5 265.38 9.3 270.28 9.3 270.28 10.5 265.38 10.5 265.38 14.8 271.23 14.8 271.23 15.95 264.18 15.95Z" opacity="1" transform="matrix(1,0,0,1,0,0)" fill="#79b9dd" class="undefined-text-0" data-fill-palette-color="primary" id="text-0"></path></svg></g></svg></g><g transform="matrix(1,0,0,1,226.21404903225803,79.72982605075269)"><svg viewBox="0 0 169.30595096774195 39.86246193548387" height="39.86246193548387" width="169.30595096774195"><g transform="matrix(1,0,0,1,0,0)"><svg width="169.30595096774195" viewBox="3.8299999237060547 -35.54999923706055 150.97000122070312 35.54999923706055" height="39.86246193548387" data-palette-color="#79b9dd"><path d="M27.1-35.55L27.1 0 22.61 0 22.61-16.43 8.3-16.43 8.3 0 3.83 0 3.83-35.55 8.3-35.55 8.3-20.26 22.61-20.26 22.61-35.55 27.1-35.55ZM51.88-20.26L51.88-16.43 39.3-16.43 39.3-3.83 53.95-3.83 53.95 0 34.84 0 34.84-35.55 53.71-35.55 53.71-31.69 39.3-31.69 39.3-20.26 51.88-20.26ZM79.05 0L76.24-9.28 64.23-9.28 61.47 0 56.88 0 68.33-35.55 72.16-35.55 83.64 0 79.05 0ZM70.23-29.3L65.4-13.13 75.09-13.13 70.23-29.3ZM92.96-35.55L92.96-3.83 106.9-3.83 106.9 0 88.47 0 88.47-35.55 92.96-35.55ZM126.28-35.55L126.28-31.69 116.93-31.69 116.93 0 112.47 0 112.47-31.69 103.14-31.69 103.14-35.55 126.28-35.55ZM154.8-35.55L154.8 0 150.3 0 150.3-16.43 136-16.43 136 0 131.53 0 131.53-35.55 136-35.55 136-20.26 150.3-20.26 150.3-35.55 154.8-35.55Z" opacity="1" transform="matrix(1,0,0,1,0,0)" fill="#79b9dd" class="undefined-text-1" data-fill-palette-color="secondary" id="text-1"></path></svg></g></svg></g></svg></g></svg></g><g transform="matrix(1,0,0,1,410.74746045935484,0)"><svg viewBox="0 0 165.27654199697892 165.27654199697892" height="165.27654199697892" width="165.27654199697892"><g><svg xmlns="http://www.w3.org/2000/svg" xmlns:xlink="http://www.w3.org/1999/xlink" version="1.1" x="0" y="0" viewBox="0 0 335.9739990234375 335.9739990234375" enable-background="new 0 0 335.975 335.974" xml:space="preserve" width="165.27654199697892" height="165.27654199697892" class="icon-icon-0" data-fill-palette-color="accent" id="icon-0"><g fill="#79b9dd" data-fill-palette-color="accent"><path fill="#79b9dd" d="M167.987 0C75.21 0 0 75.21 0 167.987c0 92.777 75.21 167.987 167.987 167.987s167.987-75.21 167.987-167.987C335.975 75.21 260.765 0 167.987 0zM250.414 172.08c0 7.954-6.451 14.404-14.405 14.404h-49.524v49.524c0 7.955-6.451 14.405-14.405 14.405h-8.184c-7.954 0-14.405-6.45-14.405-14.405v-49.524h-44.523c-7.956 0-14.406-6.45-14.406-14.404v-8.184c0-7.955 6.45-14.405 14.406-14.405h44.523V99.966c0-7.956 6.451-14.404 14.405-14.404h8.184c7.954 0 14.405 6.448 14.405 14.404v49.524h49.524c7.954 0 14.405 6.451 14.405 14.405V172.08z" data-fill-palette-color="accent"></path><g fill="#79b9dd" data-fill-palette-color="accent"><path d="M93.348 180.57l-0.014 0.003 0.098 0.109C93.404 180.645 93.376 180.608 93.348 180.57z" fill="#79b9dd" data-fill-palette-color="accent"></path><path d="M245.673 153.215l-0.02 0.003c2.917 2.636 4.761 6.437 4.761 10.677v8.184c0 7.954-6.451 14.404-14.405 14.404h-49.524v49.524c0 7.955-6.451 14.405-14.405 14.405h-8.184c-7.954 0-14.405-6.45-14.405-14.405v-49.524h-44.523c-3.798 0-7.243-1.481-9.817-3.884l128.786 143.818c47.828-16.89 85.715-54.817 102.55-102.672L245.673 153.215z" fill="#79b9dd" data-fill-palette-color="accent"></path></g></g></svg></g></svg></g></svg></g><defs></defs></svg><rect width="395.52" height="113.48516313884086" fill="none" stroke="none" visibility="hidden"></rect></g></svg></g></svg>